<svg xmlns="http://www.w3.org/2000/svg" viewBox="0 0 720 920" role="img" aria-label="Root-Mantled Earth specimen plate">
  <rect width="720" height="920" fill="#18140d"/>
  <rect x="34" y="34" width="652" height="852" fill="#211b10" stroke="#8a6a3e" stroke-width="2"/>
  <path d="M360 92c-69 82-101 167-96 255 3 64 30 115 55 165 21 42 41 84 41 136" fill="none" stroke="#c9b37c" stroke-width="9" stroke-linecap="round"/>
  <path d="M360 92c69 82 101 167 96 255-3 64-30 115-55 165-21 42-41 84-41 136" fill="none" stroke="#c9b37c" stroke-width="9" stroke-linecap="round"/>
  <path d="M360 181c-92 34-152 98-180 191M360 181c92 34 152 98 180 191" fill="none" stroke="#657d56" stroke-width="5" stroke-linecap="round"/>
  <path d="M360 468c-92 33-158 95-198 187M360 468c92 33 158 95 198 187" fill="none" stroke="#657d56" stroke-width="5" stroke-linecap="round"/>
  <g fill="none" stroke="#534329" stroke-width="3">
    <ellipse cx="360" cy="346" rx="118" ry="202"/>
    <ellipse cx="360" cy="346" rx="84" ry="151"/>
    <ellipse cx="360" cy="346" rx="48" ry="91"/>
  </g>
  <g stroke="#a7773c" stroke-width="3" stroke-linecap="round">
    <path d="M360 648c-40 62-91 100-153 114"/>
    <path d="M360 648c40 62 91 100 153 114"/>
    <path d="M360 682c-16 72-16 121 0 147"/>
  </g>
  <g fill="#5f8b76">
    <circle cx="212" cy="399" r="8"/>
    <circle cx="502" cy="394" r="8"/>
    <circle cx="307" cy="760" r="7"/>
    <circle cx="429" cy="760" r="7"/>
  </g>
  <text x="64" y="84" fill="#b48242" font-family="Georgia, serif" font-size="22">D-01 TERRESTRIAL BODY</text>
  <text x="64" y="842" fill="#d7c7a0" font-family="Georgia, serif" font-size="18">Cambium / root scar / fungal witness</text>
</svg>
