<svg xmlns="http://www.w3.org/2000/svg" viewBox="0 0 720 920" role="img" aria-label="Ink-Blooded Sea specimen plate">
  <rect width="720" height="920" fill="#091315"/>
  <rect x="34" y="34" width="652" height="852" fill="#11191a" stroke="#587c82" stroke-width="2"/>
  <ellipse cx="360" cy="240" rx="112" ry="142" fill="none" stroke="#b7a16f" stroke-width="7"/>
  <path d="M306 350c-72 99-117 190-135 273M342 369c-31 123-45 229-42 318M378 369c31 123 45 229 42 318M414 350c72 99 117 190 135 273" fill="none" stroke="#2f6f78" stroke-width="8" stroke-linecap="round"/>
  <path d="M298 274c45 27 87 27 126 0" fill="none" stroke="#d7c7a0" stroke-width="4"/>
  <g fill="#5f8b76" opacity=".88">
    <circle cx="292" cy="192" r="8"/>
    <circle cx="330" cy="164" r="6"/>
    <circle cx="390" cy="164" r="6"/>
    <circle cx="428" cy="192" r="8"/>
    <circle cx="311" cy="258" r="5"/>
    <circle cx="409" cy="258" r="5"/>
  </g>
  <g fill="none" stroke="#53696b" stroke-width="3">
    <path d="M170 640c56 20 113 20 170 0s113-20 170 0"/>
    <path d="M146 695c72 28 144 28 216 0s144-28 216 0"/>
    <path d="M188 755c42 16 84 16 126 0s84-16 126 0 84 16 126 0"/>
  </g>
  <path d="M513 407c36 22 65 57 87 104" fill="none" stroke="#8d3b2d" stroke-width="4" stroke-linecap="round"/>
  <path d="M207 407c-36 22-65 57-87 104" fill="none" stroke="#8d3b2d" stroke-width="4" stroke-linecap="round"/>
  <text x="64" y="84" fill="#b48242" font-family="Georgia, serif" font-size="22">D-03 PELAGIC BODY</text>
  <text x="64" y="842" fill="#d7c7a0" font-family="Georgia, serif" font-size="18">Chromatophore / arm nerve / ink witness</text>
</svg>
