<svg xmlns="http://www.w3.org/2000/svg" viewBox="0 0 1100 620" role="img" aria-label="Krontium war atlas">
  <rect width="1100" height="620" fill="#15130e"/>
  <rect x="40" y="40" width="1020" height="540" fill="#201a10" stroke="#83663c" stroke-width="2"/>
  <path d="M93 401c110-91 232-115 366-72 128 41 238 21 329-59 60-53 128-75 204-68" fill="none" stroke="#587c82" stroke-width="16" stroke-linecap="round" opacity=".55"/>
  <path d="M94 407c110-91 232-115 366-72 128 41 238 21 329-59 60-53 128-75 204-68" fill="none" stroke="#d7c7a0" stroke-width="2" stroke-dasharray="10 12"/>
  <path d="M178 128c79 63 146 101 202 115 103 27 189-11 258-114M307 505c59-89 139-139 239-150 89-10 164 15 225 75" fill="none" stroke="#5f8b76" stroke-width="3"/>
  <path d="M260 219l82 42 92 17 119-33 97-68M503 359l85-22 95 18 70 58" fill="none" stroke="#8d3b2d" stroke-width="5" stroke-dasharray="18 12"/>
  <g fill="#b48242">
    <circle cx="260" cy="219" r="9"/>
    <circle cx="553" cy="245" r="9"/>
    <circle cx="753" cy="413" r="9"/>
  </g>
  <g fill="none" stroke="#d7c7a0" stroke-width="2">
    <rect x="516" y="218" width="74" height="54"/>
    <rect x="722" y="386" width="62" height="54"/>
    <path d="M244 207l32 0 0 24-32 0z"/>
  </g>
  <text x="70" y="86" fill="#b48242" font-family="Georgia, serif" font-size="24">WAR ATLAS / HARVEST FRONT</text>
  <text x="70" y="550" fill="#d7c7a0" font-family="Georgia, serif" font-size="18">roads, rivers, stores, false treaty flags, and one wet-root campaign</text>
</svg>
